<?xml version="1.0" standalone="no"?>
<!DOCTYPE svg PUBLIC "-//W3C//DTD SVG 20010904//EN"
 "http://www.w3.org/TR/2001/REC-SVG-20010904/DTD/svg10.dtd">
<svg version="1.0" xmlns="http://www.w3.org/2000/svg"
 width="300.000000pt" height="214.000000pt" viewBox="0 0 300.000000 214.000000"
 preserveAspectRatio="xMidYMid meet">

<g transform="translate(0.000000,214.000000) scale(0.100000,-0.100000)"
fill="#000000" stroke="none">
<path d="M160 1055 l0 -345 40 0 40 0 0 305 0 305 68 0 c66 0 69 1 107 40 l39
40 -147 0 -147 0 0 -345z"/>
<path d="M1130 1095 l0 -305 -68 0 c-66 0 -69 -1 -107 -40 l-39 -40 142 0 142
0 0 345 0 345 -35 0 -35 0 0 -305z"/>
<path d="M2404 1386 c-60 -19 -107 -59 -137 -115 -102 -186 45 -398 253 -365
l55 9 1 125 c0 69 -1 101 -3 72 -4 -46 -8 -54 -29 -62 -59 -23 -141 -3 -164
39 -14 27 -12 102 3 121 41 52 115 65 161 29 33 -26 45 -19 15 9 -66 62 -187
19 -205 -73 -18 -100 70 -174 176 -147 42 10 54 0 21 -18 -33 -17 -110 -12
-151 11 -49 27 -70 66 -70 126 0 138 154 204 258 110 12 -11 22 -16 22 -10 0
22 -61 62 -104 68 -60 9 -107 -8 -149 -54 -112 -124 -1 -307 166 -274 35 7 47
7 47 -3 0 -29 -116 -32 -175 -5 -74 34 -105 85 -105 172 0 52 24 112 56 140
70 61 172 65 250 10 56 -39 69 -35 19 6 -89 73 -200 69 -280 -11 -144 -144
-24 -377 181 -351 32 4 54 3 54 -3 0 -25 -122 -30 -177 -7 -95 40 -145 113
-145 214 0 203 245 309 389 169 18 -18 35 -29 38 -26 9 9 -50 64 -90 82 -49
23 -131 29 -181 12z"/>
<path d="M1671 1358 c-5 -13 -45 -115 -90 -227 -44 -113 -79 -207 -76 -209 6
-6 23 34 110 256 37 95 71 170 76 165 4 -4 45 -102 89 -216 45 -114 85 -206
88 -202 7 7 -171 455 -181 455 -4 0 -11 -10 -16 -22z"/>
<path d="M1730 1373 c-1 -17 175 -453 182 -453 4 0 -2 24 -13 53 -12 28 -52
132 -91 230 -63 160 -78 192 -78 170z"/>
<path d="M1770 1378 c0 -13 172 -443 181 -452 16 -18 10 1 -77 221 -75 190
-104 254 -104 231z"/>
<path d="M1820 1355 c70 -184 173 -435 177 -431 7 6 -170 456 -179 456 -4 0
-3 -11 2 -25z"/>
<path d="M2054 1150 c0 -129 2 -182 3 -117 2 64 2 170 0 235 -1 64 -3 11 -3
-118z"/>
<path d="M2094 1150 c0 -129 2 -182 3 -117 2 64 2 170 0 235 -1 64 -3 11 -3
-118z"/>
<path d="M2134 1150 c0 -129 2 -182 3 -117 2 64 2 170 0 235 -1 64 -3 11 -3
-118z"/>
<path d="M2174 1150 c0 -129 2 -182 3 -117 2 64 2 170 0 235 -1 64 -3 11 -3
-118z"/>
<path d="M581 1328 c-112 -43 -185 -150 -186 -273 -1 -260 315 -393 499 -209
59 59 86 125 86 209 0 208 -204 348 -399 273z m210 -68 c101 -52 149 -163 118
-275 -17 -62 -102 -140 -168 -154 -97 -21 -186 15 -244 97 -30 43 -32 53 -32
127 0 67 4 86 23 118 64 102 196 140 303 87z"/>
<path d="M650 1259 c0 -4 11 -32 25 -63 14 -31 25 -59 25 -61 0 -3 -48 -6
-107 -6 l-108 -2 69 -11 c38 -6 69 -15 68 -19 0 -4 -22 -44 -47 -88 -26 -45
-45 -83 -42 -85 2 -2 21 21 42 51 20 30 39 55 41 55 1 0 24 -38 49 -85 56
-102 73 -117 39 -35 -13 33 -24 62 -24 64 0 3 48 7 108 8 l107 3 -72 9 c-40 5
-73 11 -73 13 0 3 23 43 51 90 28 46 49 86 47 88 -2 3 -21 -18 -42 -45 -21
-28 -41 -50 -45 -50 -3 0 -23 30 -43 68 -37 67 -67 112 -68 101z"/>
<path d="M1632 1152 c-30 -75 -62 -158 -73 -184 -10 -27 -15 -48 -11 -48 6 0
54 116 150 361 2 5 0 9 -5 9 -4 0 -32 -62 -61 -138z"/>
<path d="M1701 1219 c-5 -13 -32 -84 -61 -157 -29 -73 -50 -136 -47 -138 3 -3
33 65 67 151 34 86 59 159 56 162 -3 3 -10 -5 -15 -18z"/>
<path d="M1721 1159 c-5 -13 -27 -70 -50 -127 -43 -107 -47 -122 -32 -107 14
14 103 247 97 253 -3 2 -10 -6 -15 -19z"/>
<path d="M2614 1040 c0 -69 1 -97 3 -62 2 34 2 90 0 125 -2 34 -3 6 -3 -63z"/>
<path d="M2654 1040 c0 -69 1 -97 3 -62 2 34 2 90 0 125 -2 34 -3 6 -3 -63z"/>
<path d="M2694 1040 c0 -69 1 -97 3 -62 2 34 2 90 0 125 -2 34 -3 6 -3 -63z"/>
<path d="M1738 1063 c12 -2 30 -2 40 0 9 3 -1 5 -23 4 -22 0 -30 -2 -17 -4z"/>
<path d="M1723 1023 c15 -2 39 -2 55 0 15 2 2 4 -28 4 -30 0 -43 -2 -27 -4z"/>
<path d="M1717 983 c18 -2 50 -2 70 0 21 2 7 4 -32 4 -38 0 -55 -2 -38 -4z"/>
<path d="M1888 803 c7 -3 16 -2 19 1 4 3 -2 6 -13 5 -11 0 -14 -3 -6 -6z"/>
<path d="M1968 803 c6 -2 18 -2 25 0 6 3 1 5 -13 5 -14 0 -19 -2 -12 -5z"/>
<path d="M2108 803 c7 -3 16 -2 19 1 4 3 -2 6 -13 5 -11 0 -14 -3 -6 -6z"/>
<path d="M2188 803 c6 -2 18 -2 25 0 6 3 1 5 -13 5 -14 0 -19 -2 -12 -5z"/>
<path d="M2368 803 c7 -3 16 -2 19 1 4 3 -2 6 -13 5 -11 0 -14 -3 -6 -6z"/>
<path d="M2438 803 c6 -2 18 -2 25 0 6 3 1 5 -13 5 -14 0 -19 -2 -12 -5z"/>
<path d="M2608 803 c6 -2 18 -2 25 0 6 3 1 5 -13 5 -14 0 -19 -2 -12 -5z"/>
<path d="M2698 803 c7 -3 16 -2 19 1 4 3 -2 6 -13 5 -11 0 -14 -3 -6 -6z"/>
<path d="M2778 803 c6 -2 18 -2 25 0 6 3 1 5 -13 5 -14 0 -19 -2 -12 -5z"/>
<path d="M1968 773 c7 -3 16 -2 19 1 4 3 -2 6 -13 5 -11 0 -14 -3 -6 -6z"/>
<path d="M2188 773 c7 -3 16 -2 19 1 4 3 -2 6 -13 5 -11 0 -14 -3 -6 -6z"/>
<path d="M2438 773 c6 -2 18 -2 25 0 6 3 1 5 -13 5 -14 0 -19 -2 -12 -5z"/>
<path d="M2778 773 c6 -2 18 -2 25 0 6 3 1 5 -13 5 -14 0 -19 -2 -12 -5z"/>
<path d="M1458 753 c6 -2 18 -2 25 0 6 3 1 5 -13 5 -14 0 -19 -2 -12 -5z"/>
<path d="M1793 753 c9 -2 23 -2 30 0 6 3 -1 5 -18 5 -16 0 -22 -2 -12 -5z"/>
<path d="M2523 753 c9 -2 23 -2 30 0 6 3 -1 5 -18 5 -16 0 -22 -2 -12 -5z"/>
<path d="M1888 743 c7 -3 16 -2 19 1 4 3 -2 6 -13 5 -11 0 -14 -3 -6 -6z"/>
<path d="M1968 743 c6 -2 18 -2 25 0 6 3 1 5 -13 5 -14 0 -19 -2 -12 -5z"/>
<path d="M2108 743 c7 -3 16 -2 19 1 4 3 -2 6 -13 5 -11 0 -14 -3 -6 -6z"/>
<path d="M2188 743 c6 -2 18 -2 25 0 6 3 1 5 -13 5 -14 0 -19 -2 -12 -5z"/>
<path d="M2368 743 c7 -3 16 -2 19 1 4 3 -2 6 -13 5 -11 0 -14 -3 -6 -6z"/>
<path d="M2698 743 c7 -3 16 -2 19 1 4 3 -2 6 -13 5 -11 0 -14 -3 -6 -6z"/>
</g>
</svg>
