<svg xmlns="http://www.w3.org/2000/svg" xmlns:xlink="http://www.w3.org/1999/xlink" width="500" zoomAndPan="magnify" viewBox="0 0 375 187.499995" height="250" preserveAspectRatio="xMidYMid meet" version="1.0"><defs><g/><clipPath id="ddb512aef5"><path d="M 22.960938 31.890625 L 146.382812 31.890625 L 146.382812 155.308594 L 22.960938 155.308594 Z M 22.960938 31.890625 " clip-rule="nonzero"/></clipPath></defs><g clip-path="url(#ddb512aef5)"><path fill="#000000" d="M 84.671875 57.984375 C 94.507812 57.984375 103.417969 61.96875 109.851562 68.417969 C 116.300781 74.867188 120.289062 83.765625 120.289062 93.597656 C 120.289062 103.433594 116.300781 112.34375 109.851562 118.78125 C 103.417969 125.230469 94.507812 129.214844 84.671875 129.214844 C 74.835938 129.214844 65.9375 125.230469 59.488281 118.78125 C 53.042969 112.34375 49.054688 103.433594 49.054688 93.597656 C 49.054688 83.765625 53.042969 74.867188 59.488281 68.417969 C 65.9375 61.96875 74.835938 57.984375 84.671875 57.984375 Z M 31.894531 61.621094 Z M 116.664062 40.824219 Z M 84.847656 44.574219 C 97.28125 44.625 109.640625 49.371094 119.0625 58.632812 L 128 49.683594 C 140.234375 61.917969 146.394531 77.839844 146.382812 93.773438 L 146.367188 93.773438 C 146.367188 104.710938 143.433594 115.695312 137.445312 125.578125 C 136.023438 127.941406 134.421875 130.226562 132.648438 132.414062 L 127.085938 126.855469 C 134.710938 117.019531 138.546875 105.296875 138.558594 93.597656 L 138.582031 93.597656 C 138.609375 82.140625 134.972656 70.691406 127.648438 61.058594 L 124.175781 64.53125 C 130.621094 73.253906 133.773438 83.539062 133.722656 93.773438 L 133.695312 93.773438 C 133.648438 106.207031 128.898438 118.570312 119.652344 127.992188 L 128.585938 136.925781 C 116.363281 149.160156 100.429688 155.324219 84.496094 155.308594 L 84.496094 155.296875 C 73.574219 155.296875 62.589844 152.359375 52.703125 146.375 C 50.328125 144.949219 48.054688 143.351562 45.855469 141.574219 L 51.417969 136.015625 C 61.25 143.636719 72.972656 147.472656 84.671875 147.488281 L 84.671875 147.511719 C 96.132812 147.535156 107.578125 143.898438 117.214844 136.578125 L 113.75 133.101562 C 105.015625 139.550781 94.730469 142.699219 84.496094 142.648438 L 84.496094 142.625 C 72.074219 142.574219 59.714844 137.828125 50.292969 128.578125 L 41.34375 137.515625 C 29.121094 125.292969 22.949219 109.359375 22.960938 93.425781 L 22.972656 93.425781 C 22.984375 82.503906 25.910156 71.515625 31.910156 61.632812 C 33.320312 59.257812 34.921875 56.984375 36.695312 54.785156 L 42.257812 60.34375 C 34.632812 70.179688 30.796875 81.902344 30.785156 93.597656 L 30.757812 93.597656 C 30.746094 105.058594 34.382812 116.507812 41.695312 126.140625 L 45.167969 122.679688 C 38.71875 113.945312 35.570312 103.660156 35.621094 93.425781 L 35.644531 93.425781 C 35.695312 81.003906 40.445312 68.644531 49.703125 59.21875 L 40.757812 50.273438 C 52.992188 38.050781 68.914062 31.875 84.847656 31.890625 L 84.847656 31.902344 C 95.78125 31.914062 106.765625 34.839844 116.652344 40.835938 C 119.011719 42.25 121.300781 43.847656 123.488281 45.625 L 117.925781 51.183594 C 108.089844 43.5625 96.367188 39.722656 84.671875 39.710938 L 84.671875 39.6875 C 73.210938 39.675781 61.765625 43.3125 52.128906 50.621094 L 55.601562 54.097656 C 64.324219 47.648438 74.609375 44.5 84.847656 44.546875 Z M 125.960938 93.773438 L 125.925781 93.773438 C 125.988281 83.25 122.050781 72.640625 113.851562 64.445312 C 112.226562 62.820312 110.476562 61.332031 108.601562 59.996094 C 101.15625 54.695312 92.90625 52.296875 84.847656 52.320312 L 84.847656 52.347656 C 74.324219 52.285156 63.714844 56.234375 55.515625 64.417969 C 53.890625 66.042969 52.402344 67.804688 51.066406 69.667969 C 45.769531 77.117188 43.367188 85.363281 43.394531 93.425781 L 43.417969 93.425781 C 43.355469 103.960938 47.304688 114.570312 55.492188 122.753906 C 57.113281 124.378906 58.878906 125.867188 60.738281 127.203125 C 68.1875 132.515625 76.4375 134.902344 84.496094 134.890625 L 84.496094 134.851562 C 95.03125 134.914062 105.640625 130.976562 113.828125 122.78125 C 115.453125 121.15625 116.9375 119.40625 118.277344 117.53125 C 123.585938 110.082031 125.972656 101.835938 125.960938 93.773438 Z M 137.445312 125.59375 Z M 52.691406 146.375 Z M 76.347656 108.007812 L 55.054688 95.710938 C 55.578125 103.070312 58.765625 109.695312 63.675781 114.59375 C 64.425781 115.355469 65.226562 116.070312 66.0625 116.742188 L 78.761719 109.40625 Z M 55.328125 89.050781 L 68.023438 96.386719 L 68.023438 69.003906 C 66.464844 70.066406 65 71.28125 63.675781 72.605469 C 59.316406 76.964844 56.304688 82.675781 55.328125 89.050781 Z M 73.949219 99.796875 L 84.671875 105.996094 L 90.03125 102.898438 L 95.394531 99.796875 L 95.394531 87.402344 L 84.671875 81.214844 L 73.949219 87.402344 Z M 95.394531 106.621094 L 71.6875 120.316406 C 75.609375 122.230469 80.023438 123.292969 84.671875 123.292969 C 88.457031 123.292969 92.070312 122.59375 95.394531 121.304688 Z M 101.316406 90.824219 L 101.316406 118.195312 C 102.878906 117.132812 104.339844 115.929688 105.667969 114.59375 C 110.027344 110.246094 113.039062 104.535156 114.027344 98.148438 Z M 84.671875 112.820312 L 78.761719 109.40625 Z M 92.996094 79.191406 L 114.289062 91.488281 C 113.777344 84.125 110.578125 77.515625 105.667969 72.605469 C 104.917969 71.855469 104.117188 71.128906 103.292969 70.46875 L 90.582031 77.789062 Z M 73.949219 80.578125 L 76.347656 79.191406 L 84.671875 74.378906 L 97.65625 66.894531 C 93.730469 64.980469 89.332031 63.90625 84.671875 63.90625 C 80.898438 63.90625 77.273438 64.617188 73.949219 65.90625 Z M 73.949219 80.578125 " fill-opacity="1" fill-rule="evenodd"/></g><g fill="#000000" fill-opacity="1"><g transform="translate(175.558716, 66.815602)"><g><path d="M 0.078125 0 L 5.125 -16.265625 L 5.5625 -18.9375 L 10.359375 -19.328125 L 16.421875 0 L 12.09375 0 L 10.625 -5.40625 L 5.65625 -5.40625 L 4.21875 0 Z M 8.140625 -17.25 L 7.46875 -12.546875 L 6.40625 -8.1875 L 9.875 -8.1875 L 8.796875 -12.546875 Z M 8.140625 -17.25 "/></g></g></g><g fill="#000000" fill-opacity="1"><g transform="translate(192.028108, 66.815602)"><g><path d="M 1.40625 0 L 1.40625 -16 L 0.984375 -18.9375 L 5.859375 -19.328125 L 5.859375 0 Z M 1.40625 0 "/></g></g></g><g fill="#000000" fill-opacity="1"><g transform="translate(175.558716, 97.674022)"><g><path d="M 1.40625 0 L 1.40625 -16 L 0.984375 -18.9375 L 5.859375 -19.328125 L 5.859375 0 Z M 1.40625 0 "/></g></g></g><g fill="#000000" fill-opacity="1"><g transform="translate(183.159973, 97.674022)"><g><path d="M 5.78125 0 L 1.640625 0 L 1.640625 -13.84375 L 5.78125 -14.265625 L 5.78125 -11.875 L 6.921875 -13.78125 C 7.191406 -13.875 7.46875 -13.957031 7.75 -14.03125 C 8.03125 -14.113281 8.316406 -14.15625 8.609375 -14.15625 C 8.972656 -14.15625 9.335938 -14.125 9.703125 -14.0625 C 10.078125 -14.007812 10.425781 -13.929688 10.75 -13.828125 C 11.070312 -13.722656 11.367188 -13.597656 11.640625 -13.453125 C 11.921875 -13.304688 12.148438 -13.144531 12.328125 -12.96875 C 12.523438 -13.101562 12.75 -13.238281 13 -13.375 C 13.257812 -13.519531 13.546875 -13.648438 13.859375 -13.765625 C 14.179688 -13.878906 14.523438 -13.972656 14.890625 -14.046875 C 15.253906 -14.117188 15.640625 -14.15625 16.046875 -14.15625 C 16.816406 -14.15625 17.503906 -14.039062 18.109375 -13.8125 C 18.722656 -13.582031 19.242188 -13.257812 19.671875 -12.84375 C 20.097656 -12.425781 20.425781 -11.914062 20.65625 -11.3125 C 20.882812 -10.71875 21 -10.054688 21 -9.328125 L 21 0 L 16.859375 0 L 16.859375 -9.59375 C 16.859375 -9.9375 16.816406 -10.222656 16.734375 -10.453125 C 16.648438 -10.691406 16.535156 -10.878906 16.390625 -11.015625 C 16.253906 -11.160156 16.097656 -11.257812 15.921875 -11.3125 C 15.753906 -11.375 15.578125 -11.40625 15.390625 -11.40625 C 15.273438 -11.40625 15.132812 -11.375 14.96875 -11.3125 C 14.8125 -11.257812 14.640625 -11.1875 14.453125 -11.09375 C 14.273438 -11 14.085938 -10.882812 13.890625 -10.75 C 13.691406 -10.625 13.507812 -10.476562 13.34375 -10.3125 C 13.363281 -10.113281 13.375 -9.9375 13.375 -9.78125 C 13.375 -9.632812 13.375 -9.445312 13.375 -9.21875 L 13.375 0 L 9.25 0 L 9.25 -9.59375 C 9.25 -9.9375 9.21875 -10.222656 9.15625 -10.453125 C 9.09375 -10.691406 9.003906 -10.878906 8.890625 -11.015625 C 8.785156 -11.160156 8.65625 -11.257812 8.5 -11.3125 C 8.34375 -11.375 8.171875 -11.40625 7.984375 -11.40625 C 7.835938 -11.40625 7.671875 -11.378906 7.484375 -11.328125 C 7.304688 -11.273438 7.117188 -11.203125 6.921875 -11.109375 C 6.734375 -11.023438 6.539062 -10.914062 6.34375 -10.78125 C 6.144531 -10.644531 5.957031 -10.5 5.78125 -10.34375 Z M 5.78125 0 "/></g></g></g><g fill="#000000" fill-opacity="1"><g transform="translate(205.963756, 97.674022)"><g><path d="M 12.328125 0 L 8.03125 0 L 8.03125 -2.046875 L 6.515625 0.15625 C 6.441406 0.164062 6.359375 0.175781 6.265625 0.1875 C 6.179688 0.207031 6.046875 0.21875 5.859375 0.21875 C 5.140625 0.21875 4.453125 0.113281 3.796875 -0.09375 C 3.148438 -0.300781 2.582031 -0.601562 2.09375 -1 C 1.601562 -1.40625 1.210938 -1.90625 0.921875 -2.5 C 0.628906 -3.09375 0.484375 -3.769531 0.484375 -4.53125 C 0.484375 -5.070312 0.5625 -5.5625 0.71875 -6 C 0.882812 -6.445312 1.109375 -6.84375 1.390625 -7.1875 C 1.671875 -7.53125 1.992188 -7.828125 2.359375 -8.078125 C 2.734375 -8.335938 3.132812 -8.546875 3.5625 -8.703125 C 3.988281 -8.867188 4.425781 -8.992188 4.875 -9.078125 C 5.332031 -9.160156 5.773438 -9.203125 6.203125 -9.203125 C 6.585938 -9.203125 6.925781 -9.1875 7.21875 -9.15625 C 7.519531 -9.132812 7.785156 -9.101562 8.015625 -9.0625 C 8.015625 -9.394531 7.988281 -9.703125 7.9375 -9.984375 C 7.894531 -10.273438 7.816406 -10.523438 7.703125 -10.734375 C 7.597656 -10.941406 7.453125 -11.101562 7.265625 -11.21875 C 7.085938 -11.34375 6.851562 -11.40625 6.5625 -11.40625 C 5.84375 -11.40625 5.15625 -11.320312 4.5 -11.15625 C 3.84375 -10.988281 3.25 -10.8125 2.71875 -10.625 L 1.390625 -12.96875 C 2.046875 -13.257812 2.691406 -13.492188 3.328125 -13.671875 C 3.734375 -13.785156 4.210938 -13.894531 4.765625 -14 C 5.316406 -14.101562 5.953125 -14.15625 6.671875 -14.15625 C 7.773438 -14.15625 8.675781 -14.019531 9.375 -13.75 C 10.070312 -13.488281 10.613281 -13.113281 11 -12.625 C 11.394531 -12.144531 11.664062 -11.5625 11.8125 -10.875 C 11.957031 -10.195312 12.03125 -9.445312 12.03125 -8.625 L 12.03125 -2.59375 Z M 8.03125 -6.53125 C 7.832031 -6.550781 7.609375 -6.570312 7.359375 -6.59375 C 7.117188 -6.613281 6.890625 -6.625 6.671875 -6.625 C 6.367188 -6.625 6.070312 -6.582031 5.78125 -6.5 C 5.488281 -6.414062 5.226562 -6.285156 5 -6.109375 C 4.769531 -5.941406 4.582031 -5.726562 4.4375 -5.46875 C 4.300781 -5.207031 4.234375 -4.898438 4.234375 -4.546875 C 4.234375 -4.265625 4.28125 -4 4.375 -3.75 C 4.46875 -3.507812 4.585938 -3.296875 4.734375 -3.109375 C 4.890625 -2.929688 5.0625 -2.789062 5.25 -2.6875 C 5.4375 -2.582031 5.628906 -2.53125 5.828125 -2.53125 C 6.078125 -2.53125 6.3125 -2.566406 6.53125 -2.640625 C 6.757812 -2.722656 6.96875 -2.820312 7.15625 -2.9375 C 7.34375 -3.050781 7.507812 -3.175781 7.65625 -3.3125 C 7.800781 -3.445312 7.925781 -3.566406 8.03125 -3.671875 Z M 8.03125 -6.53125 "/></g></g></g><g fill="#000000" fill-opacity="1"><g transform="translate(219.265964, 97.674022)"><g><path d="M 9.21875 -0.203125 C 8.945312 -0.0859375 8.601562 0.0078125 8.1875 0.09375 C 7.78125 0.175781 7.332031 0.21875 6.84375 0.21875 C 5.988281 0.21875 5.191406 0.03125 4.453125 -0.34375 C 3.722656 -0.71875 3.085938 -1.226562 2.546875 -1.875 C 2.003906 -2.519531 1.578125 -3.273438 1.265625 -4.140625 C 0.960938 -5.015625 0.8125 -5.9375 0.8125 -6.90625 C 0.8125 -7.894531 0.945312 -8.828125 1.21875 -9.703125 C 1.5 -10.585938 1.914062 -11.359375 2.46875 -12.015625 C 3.019531 -12.671875 3.703125 -13.191406 4.515625 -13.578125 C 5.335938 -13.960938 6.296875 -14.15625 7.390625 -14.15625 C 7.535156 -14.15625 7.660156 -14.148438 7.765625 -14.140625 C 7.867188 -14.140625 7.960938 -14.128906 8.046875 -14.109375 L 9.203125 -12.140625 L 9.203125 -14.265625 L 13.328125 -13.84375 L 13.328125 0.515625 C 13.328125 1.359375 13.171875 2.144531 12.859375 2.875 C 12.554688 3.601562 12.117188 4.238281 11.546875 4.78125 C 10.972656 5.320312 10.269531 5.75 9.4375 6.0625 C 8.613281 6.382812 7.675781 6.546875 6.625 6.546875 C 6.070312 6.546875 5.570312 6.5 5.125 6.40625 C 4.675781 6.320312 4.257812 6.195312 3.875 6.03125 C 3.5 5.863281 3.144531 5.65625 2.8125 5.40625 C 2.476562 5.15625 2.148438 4.867188 1.828125 4.546875 L 3.65625 2.4375 C 3.789062 2.550781 3.96875 2.679688 4.1875 2.828125 C 4.40625 2.972656 4.644531 3.113281 4.90625 3.25 C 5.175781 3.382812 5.457031 3.492188 5.75 3.578125 C 6.050781 3.671875 6.347656 3.71875 6.640625 3.71875 C 6.992188 3.71875 7.328125 3.628906 7.640625 3.453125 C 7.953125 3.273438 8.222656 3.035156 8.453125 2.734375 C 8.691406 2.429688 8.878906 2.070312 9.015625 1.65625 C 9.148438 1.25 9.21875 0.8125 9.21875 0.34375 Z M 9.203125 -10.390625 C 8.960938 -10.660156 8.679688 -10.894531 8.359375 -11.09375 C 8.046875 -11.300781 7.703125 -11.40625 7.328125 -11.40625 C 6.816406 -11.40625 6.40625 -11.253906 6.09375 -10.953125 C 5.789062 -10.648438 5.550781 -10.265625 5.375 -9.796875 C 5.207031 -9.335938 5.09375 -8.835938 5.03125 -8.296875 C 4.976562 -7.753906 4.953125 -7.242188 4.953125 -6.765625 C 4.953125 -6.160156 5.003906 -5.601562 5.109375 -5.09375 C 5.210938 -4.582031 5.351562 -4.132812 5.53125 -3.75 C 5.707031 -3.375 5.921875 -3.078125 6.171875 -2.859375 C 6.429688 -2.640625 6.71875 -2.53125 7.03125 -2.53125 C 7.53125 -2.53125 7.945312 -2.632812 8.28125 -2.84375 C 8.625 -3.0625 8.929688 -3.328125 9.203125 -3.640625 Z M 9.203125 -10.390625 "/></g></g></g><g fill="#000000" fill-opacity="1"><g transform="translate(234.468489, 97.674022)"><g><path d="M 12.703125 -2 C 12.390625 -1.675781 12.050781 -1.378906 11.6875 -1.109375 C 11.320312 -0.835938 10.921875 -0.601562 10.484375 -0.40625 C 10.046875 -0.21875 9.5625 -0.0703125 9.03125 0.03125 C 8.507812 0.144531 7.929688 0.203125 7.296875 0.203125 C 6.078125 0.203125 5.035156 0.00390625 4.171875 -0.390625 C 3.316406 -0.785156 2.613281 -1.316406 2.0625 -1.984375 C 1.519531 -2.648438 1.125 -3.410156 0.875 -4.265625 C 0.625 -5.128906 0.5 -6.03125 0.5 -6.96875 C 0.5 -7.570312 0.554688 -8.164062 0.671875 -8.75 C 0.796875 -9.332031 0.976562 -9.890625 1.21875 -10.421875 C 1.457031 -10.953125 1.753906 -11.441406 2.109375 -11.890625 C 2.472656 -12.347656 2.894531 -12.742188 3.375 -13.078125 C 3.863281 -13.410156 4.410156 -13.671875 5.015625 -13.859375 C 5.617188 -14.046875 6.28125 -14.140625 7 -14.140625 C 8.019531 -14.140625 8.898438 -13.988281 9.640625 -13.6875 C 10.390625 -13.382812 11.003906 -12.96875 11.484375 -12.4375 C 11.960938 -11.90625 12.316406 -11.257812 12.546875 -10.5 C 12.785156 -9.75 12.90625 -8.921875 12.90625 -8.015625 C 12.90625 -7.785156 12.890625 -7.484375 12.859375 -7.109375 C 12.835938 -6.734375 12.804688 -6.332031 12.765625 -5.90625 L 4.265625 -5.90625 C 4.285156 -5.445312 4.382812 -5.007812 4.5625 -4.59375 C 4.738281 -4.1875 4.972656 -3.832031 5.265625 -3.53125 C 5.554688 -3.226562 5.894531 -2.984375 6.28125 -2.796875 C 6.675781 -2.617188 7.097656 -2.53125 7.546875 -2.53125 C 7.921875 -2.53125 8.273438 -2.570312 8.609375 -2.65625 C 8.941406 -2.738281 9.242188 -2.84375 9.515625 -2.96875 C 9.796875 -3.09375 10.039062 -3.21875 10.25 -3.34375 C 10.457031 -3.476562 10.625 -3.597656 10.75 -3.703125 Z M 9.3125 -8.515625 C 9.3125 -8.898438 9.28125 -9.265625 9.21875 -9.609375 C 9.164062 -9.960938 9.054688 -10.269531 8.890625 -10.53125 C 8.734375 -10.800781 8.515625 -11.015625 8.234375 -11.171875 C 7.960938 -11.328125 7.613281 -11.40625 7.1875 -11.40625 C 6.820312 -11.40625 6.5 -11.34375 6.21875 -11.21875 C 5.945312 -11.09375 5.710938 -10.929688 5.515625 -10.734375 C 5.316406 -10.546875 5.15625 -10.347656 5.03125 -10.140625 C 4.90625 -9.929688 4.804688 -9.742188 4.734375 -9.578125 L 3.59375 -8.28125 L 5.78125 -8.5 Z M 9.3125 -8.515625 "/></g></g></g><g fill="#000000" fill-opacity="1"><g transform="translate(248.401464, 97.674022)"><g/></g></g><g fill="#000000" fill-opacity="1"><g transform="translate(175.558716, 128.532442)"><g><path d="M 15.59375 -2.796875 C 15.21875 -2.378906 14.789062 -1.984375 14.3125 -1.609375 C 13.832031 -1.242188 13.304688 -0.925781 12.734375 -0.65625 C 12.171875 -0.382812 11.554688 -0.171875 10.890625 -0.015625 C 10.222656 0.140625 9.5 0.21875 8.71875 0.21875 C 7.40625 0.21875 6.226562 -0.046875 5.1875 -0.578125 C 4.15625 -1.109375 3.273438 -1.820312 2.546875 -2.71875 C 1.816406 -3.625 1.257812 -4.679688 0.875 -5.890625 C 0.488281 -7.097656 0.296875 -8.382812 0.296875 -9.75 C 0.296875 -11.019531 0.46875 -12.226562 0.8125 -13.375 C 1.164062 -14.53125 1.695312 -15.539062 2.40625 -16.40625 C 3.125 -17.269531 4.03125 -17.953125 5.125 -18.453125 C 6.21875 -18.960938 7.507812 -19.21875 9 -19.21875 C 10.082031 -19.21875 11.117188 -19.03125 12.109375 -18.65625 C 13.109375 -18.28125 13.976562 -17.738281 14.71875 -17.03125 L 12.84375 -14.828125 C 12.570312 -15.015625 12.28125 -15.191406 11.96875 -15.359375 C 11.664062 -15.523438 11.351562 -15.671875 11.03125 -15.796875 C 10.71875 -15.921875 10.40625 -16.019531 10.09375 -16.09375 C 9.78125 -16.175781 9.476562 -16.21875 9.1875 -16.21875 C 8.382812 -16.21875 7.703125 -16.046875 7.140625 -15.703125 C 6.578125 -15.359375 6.117188 -14.894531 5.765625 -14.3125 C 5.410156 -13.726562 5.148438 -13.046875 4.984375 -12.265625 C 4.828125 -11.484375 4.75 -10.65625 4.75 -9.78125 C 4.75 -9.269531 4.785156 -8.738281 4.859375 -8.1875 C 4.929688 -7.644531 5.039062 -7.113281 5.1875 -6.59375 C 5.332031 -6.070312 5.519531 -5.582031 5.75 -5.125 C 5.988281 -4.675781 6.265625 -4.273438 6.578125 -3.921875 C 6.898438 -3.578125 7.265625 -3.300781 7.671875 -3.09375 C 8.078125 -2.894531 8.53125 -2.796875 9.03125 -2.796875 C 9.25 -2.796875 9.46875 -2.820312 9.6875 -2.875 C 9.914062 -2.925781 10.128906 -2.988281 10.328125 -3.0625 C 10.535156 -3.144531 10.726562 -3.238281 10.90625 -3.34375 C 11.09375 -3.445312 11.253906 -3.550781 11.390625 -3.65625 L 11.390625 -7.8125 L 7.671875 -8.046875 L 7.671875 -10.640625 L 15.59375 -10.640625 Z M 15.59375 -2.796875 "/></g></g></g><g fill="#000000" fill-opacity="1"><g transform="translate(192.028108, 128.532442)"><g><path d="M 12.703125 -2 C 12.390625 -1.675781 12.050781 -1.378906 11.6875 -1.109375 C 11.320312 -0.835938 10.921875 -0.601562 10.484375 -0.40625 C 10.046875 -0.21875 9.5625 -0.0703125 9.03125 0.03125 C 8.507812 0.144531 7.929688 0.203125 7.296875 0.203125 C 6.078125 0.203125 5.035156 0.00390625 4.171875 -0.390625 C 3.316406 -0.785156 2.613281 -1.316406 2.0625 -1.984375 C 1.519531 -2.648438 1.125 -3.410156 0.875 -4.265625 C 0.625 -5.128906 0.5 -6.03125 0.5 -6.96875 C 0.5 -7.570312 0.554688 -8.164062 0.671875 -8.75 C 0.796875 -9.332031 0.976562 -9.890625 1.21875 -10.421875 C 1.457031 -10.953125 1.753906 -11.441406 2.109375 -11.890625 C 2.472656 -12.347656 2.894531 -12.742188 3.375 -13.078125 C 3.863281 -13.410156 4.410156 -13.671875 5.015625 -13.859375 C 5.617188 -14.046875 6.28125 -14.140625 7 -14.140625 C 8.019531 -14.140625 8.898438 -13.988281 9.640625 -13.6875 C 10.390625 -13.382812 11.003906 -12.96875 11.484375 -12.4375 C 11.960938 -11.90625 12.316406 -11.257812 12.546875 -10.5 C 12.785156 -9.75 12.90625 -8.921875 12.90625 -8.015625 C 12.90625 -7.785156 12.890625 -7.484375 12.859375 -7.109375 C 12.835938 -6.734375 12.804688 -6.332031 12.765625 -5.90625 L 4.265625 -5.90625 C 4.285156 -5.445312 4.382812 -5.007812 4.5625 -4.59375 C 4.738281 -4.1875 4.972656 -3.832031 5.265625 -3.53125 C 5.554688 -3.226562 5.894531 -2.984375 6.28125 -2.796875 C 6.675781 -2.617188 7.097656 -2.53125 7.546875 -2.53125 C 7.921875 -2.53125 8.273438 -2.570312 8.609375 -2.65625 C 8.941406 -2.738281 9.242188 -2.84375 9.515625 -2.96875 C 9.796875 -3.09375 10.039062 -3.21875 10.25 -3.34375 C 10.457031 -3.476562 10.625 -3.597656 10.75 -3.703125 Z M 9.3125 -8.515625 C 9.3125 -8.898438 9.28125 -9.265625 9.21875 -9.609375 C 9.164062 -9.960938 9.054688 -10.269531 8.890625 -10.53125 C 8.734375 -10.800781 8.515625 -11.015625 8.234375 -11.171875 C 7.960938 -11.328125 7.613281 -11.40625 7.1875 -11.40625 C 6.820312 -11.40625 6.5 -11.34375 6.21875 -11.21875 C 5.945312 -11.09375 5.710938 -10.929688 5.515625 -10.734375 C 5.316406 -10.546875 5.15625 -10.347656 5.03125 -10.140625 C 4.90625 -9.929688 4.804688 -9.742188 4.734375 -9.578125 L 3.59375 -8.28125 L 5.78125 -8.5 Z M 9.3125 -8.515625 "/></g></g></g><g fill="#000000" fill-opacity="1"><g transform="translate(205.963756, 128.532442)"><g><path d="M 5.78125 -14.265625 L 5.78125 -11.875 L 6.921875 -13.78125 C 7.191406 -13.875 7.46875 -13.957031 7.75 -14.03125 C 8.03125 -14.113281 8.316406 -14.15625 8.609375 -14.15625 C 8.972656 -14.15625 9.328125 -14.144531 9.671875 -14.125 C 10.015625 -14.101562 10.34375 -14.050781 10.65625 -13.96875 C 10.96875 -13.882812 11.265625 -13.765625 11.546875 -13.609375 C 11.828125 -13.453125 12.085938 -13.238281 12.328125 -12.96875 C 12.585938 -12.6875 12.789062 -12.375 12.9375 -12.03125 C 13.082031 -11.695312 13.1875 -11.363281 13.25 -11.03125 C 13.3125 -10.695312 13.347656 -10.367188 13.359375 -10.046875 C 13.367188 -9.734375 13.375 -9.457031 13.375 -9.21875 L 13.375 0 L 9.25 0 L 9.25 -9.59375 C 9.25 -9.9375 9.21875 -10.222656 9.15625 -10.453125 C 9.09375 -10.691406 9.003906 -10.878906 8.890625 -11.015625 C 8.785156 -11.160156 8.65625 -11.257812 8.5 -11.3125 C 8.34375 -11.375 8.171875 -11.40625 7.984375 -11.40625 C 7.835938 -11.40625 7.671875 -11.378906 7.484375 -11.328125 C 7.304688 -11.273438 7.117188 -11.203125 6.921875 -11.109375 C 6.734375 -11.023438 6.539062 -10.914062 6.34375 -10.78125 C 6.144531 -10.644531 5.957031 -10.5 5.78125 -10.34375 L 5.78125 0 L 1.640625 0 L 1.640625 -13.84375 Z M 5.78125 -14.265625 "/></g></g></g><g fill="#000000" fill-opacity="1"><g transform="translate(221.166281, 128.532442)"><g><path d="M 12.703125 -2 C 12.390625 -1.675781 12.050781 -1.378906 11.6875 -1.109375 C 11.320312 -0.835938 10.921875 -0.601562 10.484375 -0.40625 C 10.046875 -0.21875 9.5625 -0.0703125 9.03125 0.03125 C 8.507812 0.144531 7.929688 0.203125 7.296875 0.203125 C 6.078125 0.203125 5.035156 0.00390625 4.171875 -0.390625 C 3.316406 -0.785156 2.613281 -1.316406 2.0625 -1.984375 C 1.519531 -2.648438 1.125 -3.410156 0.875 -4.265625 C 0.625 -5.128906 0.5 -6.03125 0.5 -6.96875 C 0.5 -7.570312 0.554688 -8.164062 0.671875 -8.75 C 0.796875 -9.332031 0.976562 -9.890625 1.21875 -10.421875 C 1.457031 -10.953125 1.753906 -11.441406 2.109375 -11.890625 C 2.472656 -12.347656 2.894531 -12.742188 3.375 -13.078125 C 3.863281 -13.410156 4.410156 -13.671875 5.015625 -13.859375 C 5.617188 -14.046875 6.28125 -14.140625 7 -14.140625 C 8.019531 -14.140625 8.898438 -13.988281 9.640625 -13.6875 C 10.390625 -13.382812 11.003906 -12.96875 11.484375 -12.4375 C 11.960938 -11.90625 12.316406 -11.257812 12.546875 -10.5 C 12.785156 -9.75 12.90625 -8.921875 12.90625 -8.015625 C 12.90625 -7.785156 12.890625 -7.484375 12.859375 -7.109375 C 12.835938 -6.734375 12.804688 -6.332031 12.765625 -5.90625 L 4.265625 -5.90625 C 4.285156 -5.445312 4.382812 -5.007812 4.5625 -4.59375 C 4.738281 -4.1875 4.972656 -3.832031 5.265625 -3.53125 C 5.554688 -3.226562 5.894531 -2.984375 6.28125 -2.796875 C 6.675781 -2.617188 7.097656 -2.53125 7.546875 -2.53125 C 7.921875 -2.53125 8.273438 -2.570312 8.609375 -2.65625 C 8.941406 -2.738281 9.242188 -2.84375 9.515625 -2.96875 C 9.796875 -3.09375 10.039062 -3.21875 10.25 -3.34375 C 10.457031 -3.476562 10.625 -3.597656 10.75 -3.703125 Z M 9.3125 -8.515625 C 9.3125 -8.898438 9.28125 -9.265625 9.21875 -9.609375 C 9.164062 -9.960938 9.054688 -10.269531 8.890625 -10.53125 C 8.734375 -10.800781 8.515625 -11.015625 8.234375 -11.171875 C 7.960938 -11.328125 7.613281 -11.40625 7.1875 -11.40625 C 6.820312 -11.40625 6.5 -11.34375 6.21875 -11.21875 C 5.945312 -11.09375 5.710938 -10.929688 5.515625 -10.734375 C 5.316406 -10.546875 5.15625 -10.347656 5.03125 -10.140625 C 4.90625 -9.929688 4.804688 -9.742188 4.734375 -9.578125 L 3.59375 -8.28125 L 5.78125 -8.5 Z M 9.3125 -8.515625 "/></g></g></g><g fill="#000000" fill-opacity="1"><g transform="translate(235.101928, 128.532442)"><g><path d="M 10 -10.984375 C 9.832031 -11.066406 9.679688 -11.132812 9.546875 -11.1875 C 9.410156 -11.25 9.273438 -11.296875 9.140625 -11.328125 C 9.003906 -11.359375 8.859375 -11.378906 8.703125 -11.390625 C 8.554688 -11.398438 8.390625 -11.40625 8.203125 -11.40625 C 7.960938 -11.40625 7.722656 -11.347656 7.484375 -11.234375 C 7.242188 -11.117188 7.007812 -10.960938 6.78125 -10.765625 C 6.5625 -10.578125 6.359375 -10.359375 6.171875 -10.109375 C 5.984375 -9.859375 5.828125 -9.597656 5.703125 -9.328125 L 5.703125 0 L 1.578125 0 L 1.578125 -13.84375 L 5.703125 -14.265625 L 5.703125 -11.34375 L 6.890625 -13.9375 C 7.023438 -13.988281 7.21875 -14.035156 7.46875 -14.078125 C 7.71875 -14.128906 7.953125 -14.15625 8.171875 -14.15625 C 8.640625 -14.15625 9.019531 -14.117188 9.3125 -14.046875 C 9.613281 -13.972656 9.898438 -13.867188 10.171875 -13.734375 Z M 10 -10.984375 "/></g></g></g><g fill="#000000" fill-opacity="1"><g transform="translate(245.236941, 128.532442)"><g><path d="M 12.328125 0 L 8.03125 0 L 8.03125 -2.046875 L 6.515625 0.15625 C 6.441406 0.164062 6.359375 0.175781 6.265625 0.1875 C 6.179688 0.207031 6.046875 0.21875 5.859375 0.21875 C 5.140625 0.21875 4.453125 0.113281 3.796875 -0.09375 C 3.148438 -0.300781 2.582031 -0.601562 2.09375 -1 C 1.601562 -1.40625 1.210938 -1.90625 0.921875 -2.5 C 0.628906 -3.09375 0.484375 -3.769531 0.484375 -4.53125 C 0.484375 -5.070312 0.5625 -5.5625 0.71875 -6 C 0.882812 -6.445312 1.109375 -6.84375 1.390625 -7.1875 C 1.671875 -7.53125 1.992188 -7.828125 2.359375 -8.078125 C 2.734375 -8.335938 3.132812 -8.546875 3.5625 -8.703125 C 3.988281 -8.867188 4.425781 -8.992188 4.875 -9.078125 C 5.332031 -9.160156 5.773438 -9.203125 6.203125 -9.203125 C 6.585938 -9.203125 6.925781 -9.1875 7.21875 -9.15625 C 7.519531 -9.132812 7.785156 -9.101562 8.015625 -9.0625 C 8.015625 -9.394531 7.988281 -9.703125 7.9375 -9.984375 C 7.894531 -10.273438 7.816406 -10.523438 7.703125 -10.734375 C 7.597656 -10.941406 7.453125 -11.101562 7.265625 -11.21875 C 7.085938 -11.34375 6.851562 -11.40625 6.5625 -11.40625 C 5.84375 -11.40625 5.15625 -11.320312 4.5 -11.15625 C 3.84375 -10.988281 3.25 -10.8125 2.71875 -10.625 L 1.390625 -12.96875 C 2.046875 -13.257812 2.691406 -13.492188 3.328125 -13.671875 C 3.734375 -13.785156 4.210938 -13.894531 4.765625 -14 C 5.316406 -14.101562 5.953125 -14.15625 6.671875 -14.15625 C 7.773438 -14.15625 8.675781 -14.019531 9.375 -13.75 C 10.070312 -13.488281 10.613281 -13.113281 11 -12.625 C 11.394531 -12.144531 11.664062 -11.5625 11.8125 -10.875 C 11.957031 -10.195312 12.03125 -9.445312 12.03125 -8.625 L 12.03125 -2.59375 Z M 8.03125 -6.53125 C 7.832031 -6.550781 7.609375 -6.570312 7.359375 -6.59375 C 7.117188 -6.613281 6.890625 -6.625 6.671875 -6.625 C 6.367188 -6.625 6.070312 -6.582031 5.78125 -6.5 C 5.488281 -6.414062 5.226562 -6.285156 5 -6.109375 C 4.769531 -5.941406 4.582031 -5.726562 4.4375 -5.46875 C 4.300781 -5.207031 4.234375 -4.898438 4.234375 -4.546875 C 4.234375 -4.265625 4.28125 -4 4.375 -3.75 C 4.46875 -3.507812 4.585938 -3.296875 4.734375 -3.109375 C 4.890625 -2.929688 5.0625 -2.789062 5.25 -2.6875 C 5.4375 -2.582031 5.628906 -2.53125 5.828125 -2.53125 C 6.078125 -2.53125 6.3125 -2.566406 6.53125 -2.640625 C 6.757812 -2.722656 6.96875 -2.820312 7.15625 -2.9375 C 7.34375 -3.050781 7.507812 -3.175781 7.65625 -3.3125 C 7.800781 -3.445312 7.925781 -3.566406 8.03125 -3.671875 Z M 8.03125 -6.53125 "/></g></g></g><g fill="#000000" fill-opacity="1"><g transform="translate(258.539149, 128.532442)"><g><path d="M 5.90625 -4.921875 C 5.90625 -4.484375 5.914062 -4.117188 5.9375 -3.828125 C 5.96875 -3.535156 6.015625 -3.300781 6.078125 -3.125 C 6.140625 -2.945312 6.21875 -2.820312 6.3125 -2.75 C 6.414062 -2.675781 6.546875 -2.640625 6.703125 -2.640625 C 6.878906 -2.640625 7.046875 -2.65625 7.203125 -2.6875 C 7.367188 -2.71875 7.515625 -2.753906 7.640625 -2.796875 C 7.796875 -2.847656 7.9375 -2.910156 8.0625 -2.984375 L 9.265625 -0.90625 C 9.160156 -0.8125 9.003906 -0.695312 8.796875 -0.5625 C 8.585938 -0.4375 8.34375 -0.316406 8.0625 -0.203125 C 7.789062 -0.0859375 7.484375 0.00390625 7.140625 0.078125 C 6.796875 0.160156 6.441406 0.203125 6.078125 0.203125 C 5.171875 0.203125 4.441406 0.0625 3.890625 -0.21875 C 3.335938 -0.507812 2.910156 -0.898438 2.609375 -1.390625 C 2.316406 -1.878906 2.125 -2.453125 2.03125 -3.109375 C 1.945312 -3.765625 1.90625 -4.460938 1.90625 -5.203125 L 1.90625 -11.09375 L 0 -11.09375 L 0 -13.9375 L 1.90625 -13.9375 L 1.90625 -16.203125 L 5.859375 -18.53125 L 5.859375 -13.9375 L 9.53125 -13.9375 L 9.1875 -11.09375 L 5.90625 -11.09375 Z M 5.90625 -4.921875 "/></g></g></g><g fill="#000000" fill-opacity="1"><g transform="translate(268.674162, 128.532442)"><g><path d="M 7.65625 0.21875 C 6.644531 0.21875 5.71875 0.0351562 4.875 -0.328125 C 4.039062 -0.703125 3.320312 -1.210938 2.71875 -1.859375 C 2.113281 -2.503906 1.644531 -3.265625 1.3125 -4.140625 C 0.976562 -5.023438 0.8125 -5.976562 0.8125 -7 C 0.8125 -8.03125 0.972656 -8.976562 1.296875 -9.84375 C 1.617188 -10.71875 2.078125 -11.472656 2.671875 -12.109375 C 3.265625 -12.753906 3.976562 -13.253906 4.8125 -13.609375 C 5.65625 -13.972656 6.601562 -14.15625 7.65625 -14.15625 C 8.664062 -14.15625 9.59375 -13.972656 10.4375 -13.609375 C 11.28125 -13.253906 12.003906 -12.753906 12.609375 -12.109375 C 13.210938 -11.472656 13.679688 -10.71875 14.015625 -9.84375 C 14.347656 -8.976562 14.515625 -8.03125 14.515625 -7 C 14.515625 -5.976562 14.351562 -5.023438 14.03125 -4.140625 C 13.707031 -3.265625 13.25 -2.503906 12.65625 -1.859375 C 12.0625 -1.210938 11.335938 -0.703125 10.484375 -0.328125 C 9.640625 0.0351562 8.695312 0.21875 7.65625 0.21875 Z M 10.375 -6.6875 C 10.375 -7.257812 10.320312 -7.820312 10.21875 -8.375 C 10.125 -8.9375 9.960938 -9.441406 9.734375 -9.890625 C 9.515625 -10.335938 9.226562 -10.691406 8.875 -10.953125 C 8.519531 -11.222656 8.097656 -11.359375 7.609375 -11.359375 C 7.140625 -11.359375 6.734375 -11.242188 6.390625 -11.015625 C 6.054688 -10.785156 5.78125 -10.472656 5.5625 -10.078125 C 5.351562 -9.691406 5.195312 -9.25 5.09375 -8.75 C 4.988281 -8.257812 4.9375 -7.753906 4.9375 -7.234375 C 4.9375 -6.648438 4.988281 -6.078125 5.09375 -5.515625 C 5.195312 -4.960938 5.359375 -4.46875 5.578125 -4.03125 C 5.804688 -3.601562 6.09375 -3.253906 6.4375 -2.984375 C 6.78125 -2.710938 7.195312 -2.578125 7.6875 -2.578125 C 8.15625 -2.578125 8.554688 -2.691406 8.890625 -2.921875 C 9.234375 -3.148438 9.515625 -3.457031 9.734375 -3.84375 C 9.953125 -4.238281 10.113281 -4.679688 10.21875 -5.171875 C 10.320312 -5.660156 10.375 -6.164062 10.375 -6.6875 Z M 10.375 -6.6875 "/></g></g></g><g fill="#000000" fill-opacity="1"><g transform="translate(283.876687, 128.532442)"><g><path d="M 10 -10.984375 C 9.832031 -11.066406 9.679688 -11.132812 9.546875 -11.1875 C 9.410156 -11.25 9.273438 -11.296875 9.140625 -11.328125 C 9.003906 -11.359375 8.859375 -11.378906 8.703125 -11.390625 C 8.554688 -11.398438 8.390625 -11.40625 8.203125 -11.40625 C 7.960938 -11.40625 7.722656 -11.347656 7.484375 -11.234375 C 7.242188 -11.117188 7.007812 -10.960938 6.78125 -10.765625 C 6.5625 -10.578125 6.359375 -10.359375 6.171875 -10.109375 C 5.984375 -9.859375 5.828125 -9.597656 5.703125 -9.328125 L 5.703125 0 L 1.578125 0 L 1.578125 -13.84375 L 5.703125 -14.265625 L 5.703125 -11.34375 L 6.890625 -13.9375 C 7.023438 -13.988281 7.21875 -14.035156 7.46875 -14.078125 C 7.71875 -14.128906 7.953125 -14.15625 8.171875 -14.15625 C 8.640625 -14.15625 9.019531 -14.117188 9.3125 -14.046875 C 9.613281 -13.972656 9.898438 -13.867188 10.171875 -13.734375 Z M 10 -10.984375 "/></g></g></g><g fill="#000000" fill-opacity="1"><g transform="translate(175.558716, 152.071248)"><g><path d="M 4.96875 -5.515625 L 8.859375 -5.515625 L 8.859375 -0.421875 C 8.234375 -0.210938 7.640625 -0.0664062 7.078125 0.015625 C 6.523438 0.0976562 5.957031 0.140625 5.375 0.140625 C 3.882812 0.140625 2.75 -0.296875 1.96875 -1.171875 C 1.1875 -2.046875 0.796875 -3.296875 0.796875 -4.921875 C 0.796875 -6.515625 1.25 -7.753906 2.15625 -8.640625 C 3.0625 -9.523438 4.320312 -9.96875 5.9375 -9.96875 C 6.945312 -9.96875 7.921875 -9.765625 8.859375 -9.359375 L 8.15625 -7.703125 C 7.4375 -8.054688 6.691406 -8.234375 5.921875 -8.234375 C 5.023438 -8.234375 4.300781 -7.929688 3.75 -7.328125 C 3.207031 -6.722656 2.9375 -5.910156 2.9375 -4.890625 C 2.9375 -3.816406 3.15625 -3 3.59375 -2.4375 C 4.03125 -1.875 4.664062 -1.59375 5.5 -1.59375 C 5.9375 -1.59375 6.378906 -1.640625 6.828125 -1.734375 L 6.828125 -3.78125 L 4.96875 -3.78125 Z M 4.96875 -5.515625 "/></g></g></g><g fill="#000000" fill-opacity="1"><g transform="translate(185.518063, 152.071248)"><g><path d="M 4.1875 -6.203125 C 3.75 -6.203125 3.40625 -6.0625 3.15625 -5.78125 C 2.914062 -5.507812 2.78125 -5.117188 2.75 -4.609375 L 5.625 -4.609375 C 5.613281 -5.117188 5.476562 -5.507812 5.21875 -5.78125 C 4.96875 -6.0625 4.625 -6.203125 4.1875 -6.203125 Z M 4.46875 0.140625 C 3.257812 0.140625 2.316406 -0.191406 1.640625 -0.859375 C 0.960938 -1.535156 0.625 -2.484375 0.625 -3.703125 C 0.625 -4.960938 0.9375 -5.9375 1.5625 -6.625 C 2.1875 -7.3125 3.054688 -7.65625 4.171875 -7.65625 C 5.234375 -7.65625 6.0625 -7.351562 6.65625 -6.75 C 7.25 -6.144531 7.546875 -5.304688 7.546875 -4.234375 L 7.546875 -3.25 L 2.703125 -3.25 C 2.722656 -2.664062 2.894531 -2.207031 3.21875 -1.875 C 3.539062 -1.550781 3.992188 -1.390625 4.578125 -1.390625 C 5.023438 -1.390625 5.445312 -1.4375 5.84375 -1.53125 C 6.25 -1.625 6.675781 -1.773438 7.125 -1.984375 L 7.125 -0.390625 C 6.757812 -0.210938 6.375 -0.0820312 5.96875 0 C 5.5625 0.09375 5.0625 0.140625 4.46875 0.140625 Z M 4.46875 0.140625 "/></g></g></g><g fill="#000000" fill-opacity="1"><g transform="translate(193.644025, 152.071248)"><g><path d="M 8.015625 0 L 5.96875 0 L 5.96875 -4.390625 C 5.96875 -4.929688 5.867188 -5.335938 5.671875 -5.609375 C 5.484375 -5.878906 5.175781 -6.015625 4.75 -6.015625 C 4.175781 -6.015625 3.757812 -5.820312 3.5 -5.4375 C 3.25 -5.050781 3.125 -4.414062 3.125 -3.53125 L 3.125 0 L 1.078125 0 L 1.078125 -7.515625 L 2.640625 -7.515625 L 2.921875 -6.546875 L 3.03125 -6.546875 C 3.257812 -6.910156 3.570312 -7.1875 3.96875 -7.375 C 4.375 -7.5625 4.832031 -7.65625 5.34375 -7.65625 C 6.21875 -7.65625 6.878906 -7.414062 7.328125 -6.9375 C 7.785156 -6.46875 8.015625 -5.789062 8.015625 -4.90625 Z M 8.015625 0 "/></g></g></g><g fill="#000000" fill-opacity="1"><g transform="translate(202.683318, 152.071248)"><g><path d="M 4.1875 -6.203125 C 3.75 -6.203125 3.40625 -6.0625 3.15625 -5.78125 C 2.914062 -5.507812 2.78125 -5.117188 2.75 -4.609375 L 5.625 -4.609375 C 5.613281 -5.117188 5.476562 -5.507812 5.21875 -5.78125 C 4.96875 -6.0625 4.625 -6.203125 4.1875 -6.203125 Z M 4.46875 0.140625 C 3.257812 0.140625 2.316406 -0.191406 1.640625 -0.859375 C 0.960938 -1.535156 0.625 -2.484375 0.625 -3.703125 C 0.625 -4.960938 0.9375 -5.9375 1.5625 -6.625 C 2.1875 -7.3125 3.054688 -7.65625 4.171875 -7.65625 C 5.234375 -7.65625 6.0625 -7.351562 6.65625 -6.75 C 7.25 -6.144531 7.546875 -5.304688 7.546875 -4.234375 L 7.546875 -3.25 L 2.703125 -3.25 C 2.722656 -2.664062 2.894531 -2.207031 3.21875 -1.875 C 3.539062 -1.550781 3.992188 -1.390625 4.578125 -1.390625 C 5.023438 -1.390625 5.445312 -1.4375 5.84375 -1.53125 C 6.25 -1.625 6.675781 -1.773438 7.125 -1.984375 L 7.125 -0.390625 C 6.757812 -0.210938 6.375 -0.0820312 5.96875 0 C 5.5625 0.09375 5.0625 0.140625 4.46875 0.140625 Z M 4.46875 0.140625 "/></g></g></g><g fill="#000000" fill-opacity="1"><g transform="translate(210.80928, 152.071248)"><g><path d="M 5.265625 -7.65625 C 5.546875 -7.65625 5.78125 -7.632812 5.96875 -7.59375 L 5.8125 -5.671875 C 5.644531 -5.710938 5.441406 -5.734375 5.203125 -5.734375 C 4.546875 -5.734375 4.035156 -5.566406 3.671875 -5.234375 C 3.304688 -4.898438 3.125 -4.429688 3.125 -3.828125 L 3.125 0 L 1.078125 0 L 1.078125 -7.515625 L 2.625 -7.515625 L 2.9375 -6.25 L 3.03125 -6.25 C 3.257812 -6.675781 3.570312 -7.015625 3.96875 -7.265625 C 4.375 -7.523438 4.804688 -7.65625 5.265625 -7.65625 Z M 5.265625 -7.65625 "/></g></g></g><g fill="#000000" fill-opacity="1"><g transform="translate(217.054854, 152.071248)"><g><path d="M 5.84375 0 L 5.453125 -1.015625 L 5.390625 -1.015625 C 5.046875 -0.585938 4.691406 -0.285156 4.328125 -0.109375 C 3.960938 0.0546875 3.488281 0.140625 2.90625 0.140625 C 2.1875 0.140625 1.617188 -0.0664062 1.203125 -0.484375 C 0.785156 -0.898438 0.578125 -1.488281 0.578125 -2.25 C 0.578125 -3.039062 0.851562 -3.625 1.40625 -4 C 1.96875 -4.382812 2.8125 -4.597656 3.9375 -4.640625 L 5.25 -4.671875 L 5.25 -5 C 5.25 -5.769531 4.859375 -6.15625 4.078125 -6.15625 C 3.472656 -6.15625 2.765625 -5.972656 1.953125 -5.609375 L 1.28125 -6.984375 C 2.144531 -7.441406 3.101562 -7.671875 4.15625 -7.671875 C 5.164062 -7.671875 5.9375 -7.453125 6.46875 -7.015625 C 7.007812 -6.578125 7.28125 -5.90625 7.28125 -5 L 7.28125 0 Z M 5.25 -3.484375 L 4.453125 -3.453125 C 3.859375 -3.429688 3.414062 -3.320312 3.125 -3.125 C 2.832031 -2.9375 2.6875 -2.640625 2.6875 -2.234375 C 2.6875 -1.648438 3.015625 -1.359375 3.671875 -1.359375 C 4.148438 -1.359375 4.53125 -1.492188 4.8125 -1.765625 C 5.101562 -2.046875 5.25 -2.410156 5.25 -2.859375 Z M 5.25 -3.484375 "/></g></g></g><g fill="#000000" fill-opacity="1"><g transform="translate(225.362145, 152.071248)"><g><path d="M 4.234375 -1.5 C 4.597656 -1.5 5.03125 -1.578125 5.53125 -1.734375 L 5.53125 -0.203125 C 5.019531 0.0234375 4.394531 0.140625 3.65625 0.140625 C 2.832031 0.140625 2.234375 -0.0664062 1.859375 -0.484375 C 1.484375 -0.898438 1.296875 -1.523438 1.296875 -2.359375 L 1.296875 -5.96875 L 0.3125 -5.96875 L 0.3125 -6.84375 L 1.4375 -7.53125 L 2.03125 -9.109375 L 3.34375 -9.109375 L 3.34375 -7.515625 L 5.453125 -7.515625 L 5.453125 -5.96875 L 3.34375 -5.96875 L 3.34375 -2.359375 C 3.34375 -2.066406 3.425781 -1.847656 3.59375 -1.703125 C 3.757812 -1.566406 3.972656 -1.5 4.234375 -1.5 Z M 4.234375 -1.5 "/></g></g></g><g fill="#000000" fill-opacity="1"><g transform="translate(231.332383, 152.071248)"><g><path d="M 4.1875 -6.203125 C 3.75 -6.203125 3.40625 -6.0625 3.15625 -5.78125 C 2.914062 -5.507812 2.78125 -5.117188 2.75 -4.609375 L 5.625 -4.609375 C 5.613281 -5.117188 5.476562 -5.507812 5.21875 -5.78125 C 4.96875 -6.0625 4.625 -6.203125 4.1875 -6.203125 Z M 4.46875 0.140625 C 3.257812 0.140625 2.316406 -0.191406 1.640625 -0.859375 C 0.960938 -1.535156 0.625 -2.484375 0.625 -3.703125 C 0.625 -4.960938 0.9375 -5.9375 1.5625 -6.625 C 2.1875 -7.3125 3.054688 -7.65625 4.171875 -7.65625 C 5.234375 -7.65625 6.0625 -7.351562 6.65625 -6.75 C 7.25 -6.144531 7.546875 -5.304688 7.546875 -4.234375 L 7.546875 -3.25 L 2.703125 -3.25 C 2.722656 -2.664062 2.894531 -2.207031 3.21875 -1.875 C 3.539062 -1.550781 3.992188 -1.390625 4.578125 -1.390625 C 5.023438 -1.390625 5.445312 -1.4375 5.84375 -1.53125 C 6.25 -1.625 6.675781 -1.773438 7.125 -1.984375 L 7.125 -0.390625 C 6.757812 -0.210938 6.375 -0.0820312 5.96875 0 C 5.5625 0.09375 5.0625 0.140625 4.46875 0.140625 Z M 4.46875 0.140625 "/></g></g></g><g fill="#000000" fill-opacity="1"><g transform="translate(239.458345, 152.071248)"><g/></g></g><g fill="#000000" fill-opacity="1"><g transform="translate(243.031082, 152.071248)"><g><path d="M 7.25 0 L 6.671875 -2.625 L 5.890625 -5.953125 L 5.84375 -5.953125 L 4.46875 0 L 2.265625 0 L 0.140625 -7.515625 L 2.171875 -7.515625 L 3.046875 -4.1875 C 3.179688 -3.59375 3.320312 -2.769531 3.46875 -1.71875 L 3.515625 -1.71875 C 3.523438 -2.0625 3.601562 -2.601562 3.75 -3.34375 L 3.84375 -3.90625 L 4.78125 -7.515625 L 7.03125 -7.515625 L 7.921875 -3.90625 C 7.929688 -3.8125 7.957031 -3.664062 8 -3.46875 C 8.039062 -3.28125 8.078125 -3.078125 8.109375 -2.859375 C 8.148438 -2.640625 8.179688 -2.425781 8.203125 -2.21875 C 8.234375 -2.007812 8.253906 -1.84375 8.265625 -1.71875 L 8.296875 -1.71875 C 8.335938 -2.039062 8.410156 -2.484375 8.515625 -3.046875 C 8.617188 -3.609375 8.691406 -3.988281 8.734375 -4.1875 L 9.640625 -7.515625 L 11.640625 -7.515625 L 9.484375 0 Z M 7.25 0 "/></g></g></g><g fill="#000000" fill-opacity="1"><g transform="translate(254.803659, 152.071248)"><g><path d="M 8.015625 0 L 5.96875 0 L 5.96875 -4.390625 C 5.96875 -5.472656 5.5625 -6.015625 4.75 -6.015625 C 4.175781 -6.015625 3.757812 -5.816406 3.5 -5.421875 C 3.25 -5.035156 3.125 -4.40625 3.125 -3.53125 L 3.125 0 L 1.078125 0 L 1.078125 -10.453125 L 3.125 -10.453125 L 3.125 -8.328125 C 3.125 -8.160156 3.109375 -7.769531 3.078125 -7.15625 L 3.03125 -6.546875 L 3.140625 -6.546875 C 3.597656 -7.285156 4.320312 -7.65625 5.3125 -7.65625 C 6.195312 -7.65625 6.867188 -7.414062 7.328125 -6.9375 C 7.785156 -6.46875 8.015625 -5.789062 8.015625 -4.90625 Z M 8.015625 0 "/></g></g></g><g fill="#000000" fill-opacity="1"><g transform="translate(263.842952, 152.071248)"><g><path d="M 5.84375 0 L 5.453125 -1.015625 L 5.390625 -1.015625 C 5.046875 -0.585938 4.691406 -0.285156 4.328125 -0.109375 C 3.960938 0.0546875 3.488281 0.140625 2.90625 0.140625 C 2.1875 0.140625 1.617188 -0.0664062 1.203125 -0.484375 C 0.785156 -0.898438 0.578125 -1.488281 0.578125 -2.25 C 0.578125 -3.039062 0.851562 -3.625 1.40625 -4 C 1.96875 -4.382812 2.8125 -4.597656 3.9375 -4.640625 L 5.25 -4.671875 L 5.25 -5 C 5.25 -5.769531 4.859375 -6.15625 4.078125 -6.15625 C 3.472656 -6.15625 2.765625 -5.972656 1.953125 -5.609375 L 1.28125 -6.984375 C 2.144531 -7.441406 3.101562 -7.671875 4.15625 -7.671875 C 5.164062 -7.671875 5.9375 -7.453125 6.46875 -7.015625 C 7.007812 -6.578125 7.28125 -5.90625 7.28125 -5 L 7.28125 0 Z M 5.25 -3.484375 L 4.453125 -3.453125 C 3.859375 -3.429688 3.414062 -3.320312 3.125 -3.125 C 2.832031 -2.9375 2.6875 -2.640625 2.6875 -2.234375 C 2.6875 -1.648438 3.015625 -1.359375 3.671875 -1.359375 C 4.148438 -1.359375 4.53125 -1.492188 4.8125 -1.765625 C 5.101562 -2.046875 5.25 -2.410156 5.25 -2.859375 Z M 5.25 -3.484375 "/></g></g></g><g fill="#000000" fill-opacity="1"><g transform="translate(272.150243, 152.071248)"><g><path d="M 4.234375 -1.5 C 4.597656 -1.5 5.03125 -1.578125 5.53125 -1.734375 L 5.53125 -0.203125 C 5.019531 0.0234375 4.394531 0.140625 3.65625 0.140625 C 2.832031 0.140625 2.234375 -0.0664062 1.859375 -0.484375 C 1.484375 -0.898438 1.296875 -1.523438 1.296875 -2.359375 L 1.296875 -5.96875 L 0.3125 -5.96875 L 0.3125 -6.84375 L 1.4375 -7.53125 L 2.03125 -9.109375 L 3.34375 -9.109375 L 3.34375 -7.515625 L 5.453125 -7.515625 L 5.453125 -5.96875 L 3.34375 -5.96875 L 3.34375 -2.359375 C 3.34375 -2.066406 3.425781 -1.847656 3.59375 -1.703125 C 3.757812 -1.566406 3.972656 -1.5 4.234375 -1.5 Z M 4.234375 -1.5 "/></g></g></g><g fill="#000000" fill-opacity="1"><g transform="translate(278.120481, 152.071248)"><g/></g></g><g fill="#000000" fill-opacity="1"><g transform="translate(281.693218, 152.071248)"><g><path d="M 0 -7.515625 L 2.25 -7.515625 L 3.65625 -3.28125 C 3.78125 -2.914062 3.863281 -2.484375 3.90625 -1.984375 L 3.953125 -1.984375 C 4.003906 -2.441406 4.097656 -2.875 4.234375 -3.28125 L 5.625 -7.515625 L 7.828125 -7.515625 L 4.65625 0.96875 C 4.363281 1.75 3.945312 2.332031 3.40625 2.71875 C 2.863281 3.113281 2.234375 3.3125 1.515625 3.3125 C 1.160156 3.3125 0.8125 3.269531 0.46875 3.1875 L 0.46875 1.5625 C 0.71875 1.625 0.988281 1.65625 1.28125 1.65625 C 1.644531 1.65625 1.960938 1.539062 2.234375 1.3125 C 2.503906 1.09375 2.710938 0.757812 2.859375 0.3125 L 2.984375 -0.046875 Z M 0 -7.515625 "/></g></g></g><g fill="#000000" fill-opacity="1"><g transform="translate(289.51698, 152.071248)"><g><path d="M 2.703125 -3.765625 C 2.703125 -3.023438 2.820312 -2.460938 3.0625 -2.078125 C 3.3125 -1.703125 3.710938 -1.515625 4.265625 -1.515625 C 4.816406 -1.515625 5.210938 -1.703125 5.453125 -2.078125 C 5.691406 -2.453125 5.8125 -3.015625 5.8125 -3.765625 C 5.8125 -4.515625 5.6875 -5.070312 5.4375 -5.4375 C 5.195312 -5.8125 4.800781 -6 4.25 -6 C 3.707031 -6 3.3125 -5.8125 3.0625 -5.4375 C 2.820312 -5.070312 2.703125 -4.515625 2.703125 -3.765625 Z M 7.90625 -3.765625 C 7.90625 -2.546875 7.582031 -1.585938 6.9375 -0.890625 C 6.289062 -0.203125 5.390625 0.140625 4.234375 0.140625 C 3.515625 0.140625 2.878906 -0.015625 2.328125 -0.328125 C 1.773438 -0.648438 1.351562 -1.109375 1.0625 -1.703125 C 0.769531 -2.296875 0.625 -2.984375 0.625 -3.765625 C 0.625 -4.992188 0.941406 -5.945312 1.578125 -6.625 C 2.222656 -7.3125 3.125 -7.65625 4.28125 -7.65625 C 5 -7.65625 5.632812 -7.5 6.1875 -7.1875 C 6.738281 -6.875 7.160156 -6.421875 7.453125 -5.828125 C 7.753906 -5.242188 7.90625 -4.554688 7.90625 -3.765625 Z M 7.90625 -3.765625 "/></g></g></g><g fill="#000000" fill-opacity="1"><g transform="translate(298.032451, 152.071248)"><g><path d="M 6.40625 0 L 6.125 -0.96875 L 6.015625 -0.96875 C 5.796875 -0.613281 5.484375 -0.335938 5.078125 -0.140625 C 4.671875 0.046875 4.210938 0.140625 3.703125 0.140625 C 2.816406 0.140625 2.148438 -0.09375 1.703125 -0.5625 C 1.253906 -1.039062 1.03125 -1.722656 1.03125 -2.609375 L 1.03125 -7.515625 L 3.078125 -7.515625 L 3.078125 -3.125 C 3.078125 -2.582031 3.171875 -2.175781 3.359375 -1.90625 C 3.554688 -1.632812 3.867188 -1.5 4.296875 -1.5 C 4.867188 -1.5 5.28125 -1.6875 5.53125 -2.0625 C 5.789062 -2.445312 5.921875 -3.085938 5.921875 -3.984375 L 5.921875 -7.515625 L 7.96875 -7.515625 L 7.96875 0 Z M 6.40625 0 "/></g></g></g><g fill="#000000" fill-opacity="1"><g transform="translate(307.071745, 152.071248)"><g/></g></g><g fill="#000000" fill-opacity="1"><g transform="translate(310.644482, 152.071248)"><g><path d="M 7.25 0 L 6.671875 -2.625 L 5.890625 -5.953125 L 5.84375 -5.953125 L 4.46875 0 L 2.265625 0 L 0.140625 -7.515625 L 2.171875 -7.515625 L 3.046875 -4.1875 C 3.179688 -3.59375 3.320312 -2.769531 3.46875 -1.71875 L 3.515625 -1.71875 C 3.523438 -2.0625 3.601562 -2.601562 3.75 -3.34375 L 3.84375 -3.90625 L 4.78125 -7.515625 L 7.03125 -7.515625 L 7.921875 -3.90625 C 7.929688 -3.8125 7.957031 -3.664062 8 -3.46875 C 8.039062 -3.28125 8.078125 -3.078125 8.109375 -2.859375 C 8.148438 -2.640625 8.179688 -2.425781 8.203125 -2.21875 C 8.234375 -2.007812 8.253906 -1.84375 8.265625 -1.71875 L 8.296875 -1.71875 C 8.335938 -2.039062 8.410156 -2.484375 8.515625 -3.046875 C 8.617188 -3.609375 8.691406 -3.988281 8.734375 -4.1875 L 9.640625 -7.515625 L 11.640625 -7.515625 L 9.484375 0 Z M 7.25 0 "/></g></g></g><g fill="#000000" fill-opacity="1"><g transform="translate(322.417059, 152.071248)"><g><path d="M 5.84375 0 L 5.453125 -1.015625 L 5.390625 -1.015625 C 5.046875 -0.585938 4.691406 -0.285156 4.328125 -0.109375 C 3.960938 0.0546875 3.488281 0.140625 2.90625 0.140625 C 2.1875 0.140625 1.617188 -0.0664062 1.203125 -0.484375 C 0.785156 -0.898438 0.578125 -1.488281 0.578125 -2.25 C 0.578125 -3.039062 0.851562 -3.625 1.40625 -4 C 1.96875 -4.382812 2.8125 -4.597656 3.9375 -4.640625 L 5.25 -4.671875 L 5.25 -5 C 5.25 -5.769531 4.859375 -6.15625 4.078125 -6.15625 C 3.472656 -6.15625 2.765625 -5.972656 1.953125 -5.609375 L 1.28125 -6.984375 C 2.144531 -7.441406 3.101562 -7.671875 4.15625 -7.671875 C 5.164062 -7.671875 5.9375 -7.453125 6.46875 -7.015625 C 7.007812 -6.578125 7.28125 -5.90625 7.28125 -5 L 7.28125 0 Z M 5.25 -3.484375 L 4.453125 -3.453125 C 3.859375 -3.429688 3.414062 -3.320312 3.125 -3.125 C 2.832031 -2.9375 2.6875 -2.640625 2.6875 -2.234375 C 2.6875 -1.648438 3.015625 -1.359375 3.671875 -1.359375 C 4.148438 -1.359375 4.53125 -1.492188 4.8125 -1.765625 C 5.101562 -2.046875 5.25 -2.410156 5.25 -2.859375 Z M 5.25 -3.484375 "/></g></g></g><g fill="#000000" fill-opacity="1"><g transform="translate(330.72435, 152.071248)"><g><path d="M 8.015625 0 L 5.96875 0 L 5.96875 -4.390625 C 5.96875 -4.929688 5.867188 -5.335938 5.671875 -5.609375 C 5.484375 -5.878906 5.175781 -6.015625 4.75 -6.015625 C 4.175781 -6.015625 3.757812 -5.820312 3.5 -5.4375 C 3.25 -5.050781 3.125 -4.414062 3.125 -3.53125 L 3.125 0 L 1.078125 0 L 1.078125 -7.515625 L 2.640625 -7.515625 L 2.921875 -6.546875 L 3.03125 -6.546875 C 3.257812 -6.910156 3.570312 -7.1875 3.96875 -7.375 C 4.375 -7.5625 4.832031 -7.65625 5.34375 -7.65625 C 6.21875 -7.65625 6.878906 -7.414062 7.328125 -6.9375 C 7.785156 -6.46875 8.015625 -5.789062 8.015625 -4.90625 Z M 8.015625 0 "/></g></g></g><g fill="#000000" fill-opacity="1"><g transform="translate(339.763643, 152.071248)"><g><path d="M 4.234375 -1.5 C 4.597656 -1.5 5.03125 -1.578125 5.53125 -1.734375 L 5.53125 -0.203125 C 5.019531 0.0234375 4.394531 0.140625 3.65625 0.140625 C 2.832031 0.140625 2.234375 -0.0664062 1.859375 -0.484375 C 1.484375 -0.898438 1.296875 -1.523438 1.296875 -2.359375 L 1.296875 -5.96875 L 0.3125 -5.96875 L 0.3125 -6.84375 L 1.4375 -7.53125 L 2.03125 -9.109375 L 3.34375 -9.109375 L 3.34375 -7.515625 L 5.453125 -7.515625 L 5.453125 -5.96875 L 3.34375 -5.96875 L 3.34375 -2.359375 C 3.34375 -2.066406 3.425781 -1.847656 3.59375 -1.703125 C 3.757812 -1.566406 3.972656 -1.5 4.234375 -1.5 Z M 4.234375 -1.5 "/></g></g></g><g fill="#000000" fill-opacity="1"><g transform="translate(345.733881, 152.071248)"><g><path d="M 0.78125 -0.96875 C 0.78125 -1.34375 0.878906 -1.625 1.078125 -1.8125 C 1.285156 -2.007812 1.582031 -2.109375 1.96875 -2.109375 C 2.34375 -2.109375 2.628906 -2.007812 2.828125 -1.8125 C 3.035156 -1.613281 3.140625 -1.332031 3.140625 -0.96875 C 3.140625 -0.613281 3.035156 -0.332031 2.828125 -0.125 C 2.617188 0.0820312 2.332031 0.1875 1.96875 0.1875 C 1.59375 0.1875 1.300781 0.0859375 1.09375 -0.109375 C 0.882812 -0.316406 0.78125 -0.601562 0.78125 -0.96875 Z M 0.78125 -0.96875 "/></g></g></g><path stroke-linecap="butt" transform="matrix(0.000000000000000046, 0.747934, -0.748005, 0.000000000000000046, 162.396423, 31.821006)" fill="none" stroke-linejoin="miter" d="M -0.000927211 1.997418 L 165.016043 1.997418 " stroke="#000000" stroke-width="4" stroke-opacity="1" stroke-miterlimit="4"/></svg>